<svg width="383" height="120" viewBox="0 0 383 120" fill="none" xmlns="http://www.w3.org/2000/svg">
<mask id="path-1-outside-1_688_3185" maskUnits="userSpaceOnUse" x="0" y="0" width="383" height="120" fill="black">
<rect fill="white" width="383" height="120"/>
<path d="M112.153 13.7L151.079 12.9595V23.6228L137.61 27.4734L142.494 21.9937L115.705 117.371H95.7242L73.5232 38.581H77.3714L54.2824 117.371H34.4495L9.88039 23.7709L11.9525 27.1772L1 24.3633V13.7L41.8498 12.9595V23.6228L28.9732 27.7696L31.4893 23.7709L48.2141 98.2658L43.9219 98.1177L67.1589 13.5519L86.6958 12.9595L109.193 97.8215L104.901 97.9696L123.845 23.7709L125.621 27.6215L112.153 24.3633V13.7Z"/>
<path d="M186.443 36.3595C198.086 36.3595 207.164 39.8152 213.676 46.7266C220.188 53.638 223.445 63.462 223.445 76.1987C223.445 85.0848 221.866 92.7367 218.708 99.1544C215.551 105.473 211.012 110.361 205.092 113.816C199.171 117.272 192.067 119 183.779 119C172.136 119 163.107 115.544 156.694 108.633C150.379 101.722 147.221 91.8975 147.221 79.1608C147.221 70.2747 148.751 62.6722 151.809 56.3532C154.967 49.9354 159.456 44.9987 165.278 41.543C171.1 38.0873 178.155 36.3595 186.443 36.3595ZM185.407 51.1696C179.783 51.1696 175.589 53.3911 172.826 57.8342C170.064 62.1785 168.682 68.9418 168.682 78.1241C168.682 87.3063 170.014 93.9709 172.678 98.1177C175.342 102.166 179.388 104.19 184.815 104.19C188.762 104.19 191.969 103.203 194.435 101.228C196.902 99.2532 198.777 96.2418 200.06 92.1937C201.342 88.1456 201.984 83.1595 201.984 77.2354C201.984 68.2506 200.602 61.6848 197.839 57.538C195.077 53.2924 190.932 51.1696 185.407 51.1696Z"/>
<path d="M232.347 117.223V106.559L244.335 103.153L242.263 106.263V49.3924L244.631 52.9468L232.347 49.2443V38.581L258.396 37.3962L261.06 51.4658L258.396 50.8734C262.836 46.2329 267.227 42.6785 271.569 40.2101C275.91 37.643 280.548 36.3595 285.481 36.3595C288.639 36.3595 291.994 36.8532 295.546 37.8405L294.214 65.2392H282.225L280.005 49.2443L281.929 53.243C281.337 53.0456 280.696 52.8975 280.005 52.7987C279.413 52.7 278.821 52.6506 278.229 52.6506C275.17 52.6506 272.111 53.5886 269.053 55.4646C266.092 57.3405 263.527 59.7595 261.356 62.7215L262.984 57.0937V106.263L260.616 103.153L275.269 106.559V117.223H232.347Z"/>
<path d="M297.488 117.223V106.559L309.773 103.005L307.257 106.856V14.7367L308.885 17.1063L297.488 13.8481V3.18481L327.978 2V70.1266L324.573 67.0165H343.518L338.486 69.3861L351.807 49.0962L353.287 51.3177L342.926 49.2443V38.7291L379.04 37.5443V48.0595L366.607 50.8734L372.232 47.7633L354.027 74.7177L354.323 69.3861L373.86 106.263L370.752 103.597L382 106.708V117.223H358.023L339.226 79.457L342.186 80.7899H324.573L327.978 79.457V106.856L325.906 102.857L337.45 106.559V117.223H297.488Z"/>
</mask>
<path d="M112.153 13.7L151.079 12.9595V23.6228L137.61 27.4734L142.494 21.9937L115.705 117.371H95.7242L73.5232 38.581H77.3714L54.2824 117.371H34.4495L9.88039 23.7709L11.9525 27.1772L1 24.3633V13.7L41.8498 12.9595V23.6228L28.9732 27.7696L31.4893 23.7709L48.2141 98.2658L43.9219 98.1177L67.1589 13.5519L86.6958 12.9595L109.193 97.8215L104.901 97.9696L123.845 23.7709L125.621 27.6215L112.153 24.3633V13.7Z" stroke="#1BA098" stroke-width="2" mask="url(#path-1-outside-1_688_3185)"/>
<path d="M186.443 36.3595C198.086 36.3595 207.164 39.8152 213.676 46.7266C220.188 53.638 223.445 63.462 223.445 76.1987C223.445 85.0848 221.866 92.7367 218.708 99.1544C215.551 105.473 211.012 110.361 205.092 113.816C199.171 117.272 192.067 119 183.779 119C172.136 119 163.107 115.544 156.694 108.633C150.379 101.722 147.221 91.8975 147.221 79.1608C147.221 70.2747 148.751 62.6722 151.809 56.3532C154.967 49.9354 159.456 44.9987 165.278 41.543C171.1 38.0873 178.155 36.3595 186.443 36.3595ZM185.407 51.1696C179.783 51.1696 175.589 53.3911 172.826 57.8342C170.064 62.1785 168.682 68.9418 168.682 78.1241C168.682 87.3063 170.014 93.9709 172.678 98.1177C175.342 102.166 179.388 104.19 184.815 104.19C188.762 104.19 191.969 103.203 194.435 101.228C196.902 99.2532 198.777 96.2418 200.06 92.1937C201.342 88.1456 201.984 83.1595 201.984 77.2354C201.984 68.2506 200.602 61.6848 197.839 57.538C195.077 53.2924 190.932 51.1696 185.407 51.1696Z" stroke="#1BA098" stroke-width="2" mask="url(#path-1-outside-1_688_3185)"/>
<path d="M232.347 117.223V106.559L244.335 103.153L242.263 106.263V49.3924L244.631 52.9468L232.347 49.2443V38.581L258.396 37.3962L261.06 51.4658L258.396 50.8734C262.836 46.2329 267.227 42.6785 271.569 40.2101C275.91 37.643 280.548 36.3595 285.481 36.3595C288.639 36.3595 291.994 36.8532 295.546 37.8405L294.214 65.2392H282.225L280.005 49.2443L281.929 53.243C281.337 53.0456 280.696 52.8975 280.005 52.7987C279.413 52.7 278.821 52.6506 278.229 52.6506C275.17 52.6506 272.111 53.5886 269.053 55.4646C266.092 57.3405 263.527 59.7595 261.356 62.7215L262.984 57.0937V106.263L260.616 103.153L275.269 106.559V117.223H232.347Z" stroke="#1BA098" stroke-width="2" mask="url(#path-1-outside-1_688_3185)"/>
<path d="M297.488 117.223V106.559L309.773 103.005L307.257 106.856V14.7367L308.885 17.1063L297.488 13.8481V3.18481L327.978 2V70.1266L324.573 67.0165H343.518L338.486 69.3861L351.807 49.0962L353.287 51.3177L342.926 49.2443V38.7291L379.04 37.5443V48.0595L366.607 50.8734L372.232 47.7633L354.027 74.7177L354.323 69.3861L373.86 106.263L370.752 103.597L382 106.708V117.223H358.023L339.226 79.457L342.186 80.7899H324.573L327.978 79.457V106.856L325.906 102.857L337.45 106.559V117.223H297.488Z" stroke="#1BA098" stroke-width="2" mask="url(#path-1-outside-1_688_3185)"/>
</svg>
