<svg width="300" height="152" viewBox="0 0 300 152" fill="none" xmlns="http://www.w3.org/2000/svg">
<mask id="path-1-outside-1_784_3087" maskUnits="userSpaceOnUse" x="0" y="0" width="300" height="152" fill="black">
<rect fill="white" width="300" height="152"/>
<path fill-rule="evenodd" clip-rule="evenodd" d="M61.7273 62.5576C60.9397 62.7911 60.1263 63.0079 59.2872 63.208C60.1393 63.3169 60.9727 63.4417 61.7872 63.5822C64.199 63.9985 66.446 64.5536 68.528 65.2476C73.424 66.7836 77.216 69.3276 79.904 72.8796C82.592 76.3356 83.936 80.9916 83.936 86.8476C83.936 92.7996 82.448 97.8876 79.472 102.112C76.592 106.336 72.272 109.552 66.512 111.76C60.752 113.968 53.6 115.072 45.056 115.072H2V104.704L12.656 101.61V27.7497L2 24.7836V14.4156L32.384 13.6956H47.216C54.224 13.6956 60.176 14.6076 65.072 16.4316C69.968 18.1596 73.712 20.8956 76.304 24.6396C78.896 28.2876 80.192 32.9916 80.192 38.7516C80.192 46.6236 77.648 52.7196 72.56 57.0396C69.7629 59.4064 66.152 61.2457 61.7273 62.5576ZM63.7913 62.9461C65.5625 63.3162 67.244 63.7659 68.8354 64.296C73.8923 65.8839 77.8671 68.5334 80.6972 72.2706C83.5589 75.9527 84.936 80.8467 84.936 86.8476C84.936 92.9704 83.4031 98.2651 80.294 102.681C77.2774 107.103 72.7774 110.429 66.8699 112.693C60.9609 114.958 53.6786 116.072 45.056 116.072H1V103.953L11.656 100.859V28.5094L1 25.5433V13.439L32.3722 12.6956H47.216C54.3012 12.6956 60.376 13.6164 65.413 15.4915C70.4723 17.2787 74.3962 20.1295 77.1227 24.0653C79.863 27.9246 81.192 32.8461 81.192 38.7516C81.192 46.8589 78.5599 53.2572 73.2072 57.8019L73.2059 57.803C70.6751 59.9445 67.5311 61.6539 63.7913 62.9461ZM33.248 28.2396V56.3196H40.016C43.664 56.3196 46.928 55.8876 49.808 55.0236C52.784 54.1596 55.136 52.6716 56.864 50.5596C58.592 48.3516 59.456 45.3756 59.456 41.6316C59.456 38.0796 58.736 35.3436 57.296 33.4236C55.856 31.5036 53.888 30.1596 51.392 29.3916C48.992 28.6236 46.256 28.2396 43.184 28.2396H33.248ZM56.0831 49.9348C57.6293 47.9544 58.456 45.2218 58.456 41.6316C58.456 38.1967 57.7571 35.7051 56.496 34.0236C55.1941 32.2877 53.4107 31.059 51.0979 30.3474L51.0872 30.3441C48.8046 29.6136 46.1744 29.2396 43.184 29.2396H34.248V55.3196H40.016C43.5867 55.3196 46.7512 54.8966 49.5207 54.0658L49.5292 54.0632C52.334 53.2489 54.5007 51.8651 56.0831 49.9348ZM59.7931 77.2033L59.7871 77.1947C58.3627 75.1471 56.5591 73.7463 54.3653 72.9565C52.087 72.1363 49.5633 71.7196 46.784 71.7196H34.248V99.3836H43.184C46.8526 99.3836 50.1163 98.9601 52.9852 98.1272C55.782 97.3153 57.9474 95.8887 59.5325 93.8633C61.0798 91.8862 61.912 89.1058 61.912 85.4076C61.912 81.7866 61.1675 79.0931 59.7993 77.2118L59.7931 77.2033ZM33.248 100.384V70.7196H46.784C49.664 70.7196 52.304 71.1516 54.704 72.0156C57.104 72.8796 59.072 74.4156 60.608 76.6236C62.144 78.7356 62.912 81.6636 62.912 85.4076C62.912 89.2476 62.048 92.2716 60.32 94.4796C58.592 96.6876 56.24 98.2236 53.264 99.0876C50.288 99.9516 46.928 100.384 43.184 100.384H33.248ZM121.675 101.947L131.323 104.704V115.072H92.0106V104.704L101.515 101.988V17.2207L92.0106 14.5596V4.19159L121.675 3.03959V101.947ZM100.515 17.9792L91.0106 15.3181V3.22967L122.675 2V101.193L132.323 103.949V116.072H91.0106V103.949L100.515 101.234V17.9792ZM208.995 97.9453L208.992 97.9508C205.836 104.263 201.287 109.162 195.354 112.623C189.411 116.09 182.318 117.8 174.114 117.8C162.578 117.8 153.501 114.37 147.029 107.4L147.024 107.394C140.658 100.432 137.546 90.6063 137.546 78.0636C137.546 69.3115 139.053 61.7627 142.11 55.4517L142.112 55.4459C145.265 49.0421 149.763 44.0922 155.603 40.6275C161.453 37.1574 168.502 35.4476 176.706 35.4476C188.242 35.4476 197.363 38.8772 203.929 45.8416C210.493 52.803 213.706 62.6334 213.706 75.1836C213.706 83.9405 212.149 91.5387 208.995 97.9453ZM164.307 57.8559L164.301 57.8645C161.768 61.8458 160.426 68.1884 160.426 77.0556C160.426 85.9294 161.722 92.1669 164.152 95.9505C166.534 99.5648 170.133 101.4 175.122 101.4C178.793 101.4 181.675 100.484 183.857 98.7387C186.058 96.9781 187.792 94.2441 189 90.4333C190.208 86.6252 190.826 81.8863 190.826 76.1916C190.826 67.5154 189.483 61.3762 186.962 57.5943L186.956 57.5853C184.471 53.7701 180.772 51.8476 175.698 51.8476C170.54 51.8476 166.796 53.8549 164.307 57.8559ZM163.314 96.4956C160.722 92.4636 159.426 85.9836 159.426 77.0556C159.426 68.1276 160.77 61.5516 163.458 57.3276C166.146 53.0076 170.226 50.8476 175.698 50.8476C181.074 50.8476 185.106 52.9116 187.794 57.0396C190.482 61.0716 191.826 67.4556 191.826 76.1916C191.826 81.9516 191.202 86.7996 189.954 90.7356C188.706 94.6716 186.882 97.5996 184.482 99.5196C182.082 101.44 178.962 102.4 175.122 102.4C169.842 102.4 165.906 100.432 163.314 96.4956ZM223.762 118.242L223.773 118.232C225.561 116.546 227.75 115.018 230.331 113.641C229.994 113.442 229.668 113.231 229.353 113.008C226.8 111.199 225.475 108.743 225.475 105.712C225.475 104.736 225.638 103.727 225.949 102.688C226.263 101.641 226.823 100.379 227.603 98.9164C228.387 97.3489 229.456 95.4552 230.805 93.2396C231.677 91.8069 232.691 90.1309 233.847 88.2114C230.197 86.0691 227.304 83.2958 225.193 79.8859C222.583 75.6701 221.299 70.6807 221.299 64.9596C221.299 55.7802 224.422 48.519 230.733 43.3094C237.112 38.0271 245.862 35.4476 256.859 35.4476C263.663 35.4476 269.646 36.4619 274.782 38.5194L297.171 37.715V50.3694L288.889 52.0467C289.465 53.1025 289.953 54.2298 290.352 55.4274C291.16 57.8533 291.555 60.6034 291.555 63.6636C291.555 72.855 288.328 80.2062 281.834 85.6008L281.827 85.6066C275.359 90.8801 266.713 93.4636 255.995 93.4636C252.34 93.4636 248.783 93.1098 245.325 92.4011L243.979 101.4H268.379C278.179 101.4 285.774 103.288 291.011 107.216C296.296 111.179 298.899 116.972 298.899 124.432C298.899 133.043 295.111 139.652 287.621 144.149C280.283 148.708 269.406 150.92 255.131 150.92C243.078 150.92 233.948 149.335 227.871 146.047C224.821 144.397 222.483 142.319 220.91 139.792C219.335 137.262 218.563 134.338 218.563 131.056C218.563 126.002 220.292 121.712 223.752 118.252L223.762 118.242ZM287.099 143.296C294.299 138.976 297.899 132.688 297.899 124.432C297.899 117.232 295.403 111.76 290.411 108.016C285.419 104.272 278.075 102.4 268.379 102.4H242.818L244.493 91.1986C244.819 91.2725 245.145 91.3432 245.473 91.4106C248.88 92.1126 252.387 92.4636 255.995 92.4636C266.555 92.4636 274.955 89.9196 281.195 84.8316C287.435 79.6476 290.555 72.5916 290.555 63.6636C290.555 60.6876 290.171 58.0476 289.403 55.7436C288.987 54.4964 288.473 53.3335 287.86 52.2551C287.684 51.9453 287.5 51.6425 287.308 51.3466L296.171 49.5516V38.752L274.605 39.5264C273.856 39.221 273.087 38.9383 272.299 38.6784C272.235 38.6573 272.171 38.6363 272.106 38.6155C267.643 37.1702 262.561 36.4476 256.859 36.4476C246.011 36.4476 237.515 38.9916 231.371 44.0796C225.323 49.0716 222.299 56.0316 222.299 64.9596C222.299 70.5276 223.547 75.3276 226.043 79.3596C228.062 82.6215 230.836 85.2865 234.363 87.3546C234.648 87.5221 234.939 87.6857 235.235 87.8453C235.059 88.1364 234.887 88.4223 234.718 88.703C233.556 90.6337 232.536 92.3192 231.659 93.7596C230.315 95.9676 229.259 97.8396 228.491 99.3756C227.723 100.816 227.195 102.016 226.907 102.976C226.619 103.936 226.475 104.848 226.475 105.712C226.475 108.4 227.627 110.56 229.931 112.192C230.393 112.519 230.881 112.818 231.397 113.092C231.769 113.289 232.155 113.471 232.555 113.64C232.16 113.828 231.773 114.019 231.395 114.212C228.619 115.635 226.307 117.217 224.459 118.96C221.195 122.224 219.563 126.256 219.563 131.056C219.563 137.296 222.491 142 228.347 145.168C234.203 148.336 243.131 149.92 255.131 149.92C269.339 149.92 279.995 147.712 287.099 143.296ZM272.982 132.46L272.992 132.455C274.61 131.691 275.755 130.779 276.495 129.751C277.228 128.734 277.603 127.55 277.603 126.16C277.603 123.379 276.586 121.47 274.617 120.24C272.54 118.941 269.444 118.232 265.211 118.232H243.733C239.881 121.077 238.131 124.114 238.131 127.312C238.131 128.5 238.464 129.511 239.119 130.384C239.783 131.269 240.819 132.065 242.297 132.737C245.262 134.085 250.075 134.808 256.859 134.808C264.515 134.808 269.839 133.987 272.982 132.46ZM242.11 118.232C238.791 120.982 237.131 124.008 237.131 127.312C237.131 130.096 238.715 132.208 241.883 133.648C245.051 135.088 250.043 135.808 256.859 135.808C264.539 135.808 270.059 134.992 273.419 133.36C276.875 131.728 278.603 129.328 278.603 126.16C278.603 123.088 277.451 120.832 275.147 119.392C272.843 117.952 269.531 117.232 265.211 117.232H243.408C243.193 117.386 242.985 117.541 242.781 117.697C242.551 117.874 242.327 118.052 242.11 118.232ZM266.383 54.1542L266.376 54.1467C264.326 52.0964 261.169 50.9836 256.715 50.9836C252.172 50.9836 248.916 52.1409 246.766 54.2907C244.62 56.437 243.459 59.7377 243.459 64.3836C243.459 68.9336 244.573 72.2549 246.65 74.5053C248.712 76.7392 251.77 77.9276 255.995 77.9276C260.525 77.9276 263.835 76.7291 266.088 74.4765C268.334 72.2309 269.539 68.8309 269.539 64.0956C269.539 59.3286 268.414 56.1006 266.391 54.1616L266.383 54.1542ZM203.202 46.5276C196.866 39.8076 188.034 36.4476 176.706 36.4476C168.642 36.4476 161.778 38.1276 156.114 41.4876C150.45 44.8476 146.082 49.6476 143.01 55.8876C140.034 62.0316 138.546 69.4236 138.546 78.0636C138.546 90.4476 141.618 99.9996 147.762 106.72C154.002 113.44 162.786 116.8 174.114 116.8C182.178 116.8 189.09 115.12 194.85 111.76C200.61 108.4 205.026 103.648 208.098 97.5036C211.17 91.2636 212.706 83.8236 212.706 75.1836C212.706 62.7996 209.538 53.2476 203.202 46.5276ZM266.795 75.1836C264.299 77.6796 260.699 78.9276 255.995 78.9276C251.579 78.9276 248.219 77.6796 245.915 75.1836C243.611 72.6876 242.459 69.0876 242.459 64.3836C242.459 59.5836 243.659 55.9836 246.059 53.5836C248.459 51.1836 252.011 49.9836 256.715 49.9836C261.323 49.9836 264.779 51.1356 267.083 53.4396C269.387 55.6476 270.539 59.1996 270.539 64.0956C270.539 68.9916 269.291 72.6876 266.795 75.1836Z"/>
</mask>
<path fill-rule="evenodd" clip-rule="evenodd" d="M61.7273 62.5576C60.9397 62.7911 60.1263 63.0079 59.2872 63.208C60.1393 63.3169 60.9727 63.4417 61.7872 63.5822C64.199 63.9985 66.446 64.5536 68.528 65.2476C73.424 66.7836 77.216 69.3276 79.904 72.8796C82.592 76.3356 83.936 80.9916 83.936 86.8476C83.936 92.7996 82.448 97.8876 79.472 102.112C76.592 106.336 72.272 109.552 66.512 111.76C60.752 113.968 53.6 115.072 45.056 115.072H2V104.704L12.656 101.61V27.7497L2 24.7836V14.4156L32.384 13.6956H47.216C54.224 13.6956 60.176 14.6076 65.072 16.4316C69.968 18.1596 73.712 20.8956 76.304 24.6396C78.896 28.2876 80.192 32.9916 80.192 38.7516C80.192 46.6236 77.648 52.7196 72.56 57.0396C69.7629 59.4064 66.152 61.2457 61.7273 62.5576ZM63.7913 62.9461C65.5625 63.3162 67.244 63.7659 68.8354 64.296C73.8923 65.8839 77.8671 68.5334 80.6972 72.2706C83.5589 75.9527 84.936 80.8467 84.936 86.8476C84.936 92.9704 83.4031 98.2651 80.294 102.681C77.2774 107.103 72.7774 110.429 66.8699 112.693C60.9609 114.958 53.6786 116.072 45.056 116.072H1V103.953L11.656 100.859V28.5094L1 25.5433V13.439L32.3722 12.6956H47.216C54.3012 12.6956 60.376 13.6164 65.413 15.4915C70.4723 17.2787 74.3962 20.1295 77.1227 24.0653C79.863 27.9246 81.192 32.8461 81.192 38.7516C81.192 46.8589 78.5599 53.2572 73.2072 57.8019L73.2059 57.803C70.6751 59.9445 67.5311 61.6539 63.7913 62.9461ZM33.248 28.2396V56.3196H40.016C43.664 56.3196 46.928 55.8876 49.808 55.0236C52.784 54.1596 55.136 52.6716 56.864 50.5596C58.592 48.3516 59.456 45.3756 59.456 41.6316C59.456 38.0796 58.736 35.3436 57.296 33.4236C55.856 31.5036 53.888 30.1596 51.392 29.3916C48.992 28.6236 46.256 28.2396 43.184 28.2396H33.248ZM56.0831 49.9348C57.6293 47.9544 58.456 45.2218 58.456 41.6316C58.456 38.1967 57.7571 35.7051 56.496 34.0236C55.1941 32.2877 53.4107 31.059 51.0979 30.3474L51.0872 30.3441C48.8046 29.6136 46.1744 29.2396 43.184 29.2396H34.248V55.3196H40.016C43.5867 55.3196 46.7512 54.8966 49.5207 54.0658L49.5292 54.0632C52.334 53.2489 54.5007 51.8651 56.0831 49.9348ZM59.7931 77.2033L59.7871 77.1947C58.3627 75.1471 56.5591 73.7463 54.3653 72.9565C52.087 72.1363 49.5633 71.7196 46.784 71.7196H34.248V99.3836H43.184C46.8526 99.3836 50.1163 98.9601 52.9852 98.1272C55.782 97.3153 57.9474 95.8887 59.5325 93.8633C61.0798 91.8862 61.912 89.1058 61.912 85.4076C61.912 81.7866 61.1675 79.0931 59.7993 77.2118L59.7931 77.2033ZM33.248 100.384V70.7196H46.784C49.664 70.7196 52.304 71.1516 54.704 72.0156C57.104 72.8796 59.072 74.4156 60.608 76.6236C62.144 78.7356 62.912 81.6636 62.912 85.4076C62.912 89.2476 62.048 92.2716 60.32 94.4796C58.592 96.6876 56.24 98.2236 53.264 99.0876C50.288 99.9516 46.928 100.384 43.184 100.384H33.248ZM121.675 101.947L131.323 104.704V115.072H92.0106V104.704L101.515 101.988V17.2207L92.0106 14.5596V4.19159L121.675 3.03959V101.947ZM100.515 17.9792L91.0106 15.3181V3.22967L122.675 2V101.193L132.323 103.949V116.072H91.0106V103.949L100.515 101.234V17.9792ZM208.995 97.9453L208.992 97.9508C205.836 104.263 201.287 109.162 195.354 112.623C189.411 116.09 182.318 117.8 174.114 117.8C162.578 117.8 153.501 114.37 147.029 107.4L147.024 107.394C140.658 100.432 137.546 90.6063 137.546 78.0636C137.546 69.3115 139.053 61.7627 142.11 55.4517L142.112 55.4459C145.265 49.0421 149.763 44.0922 155.603 40.6275C161.453 37.1574 168.502 35.4476 176.706 35.4476C188.242 35.4476 197.363 38.8772 203.929 45.8416C210.493 52.803 213.706 62.6334 213.706 75.1836C213.706 83.9405 212.149 91.5387 208.995 97.9453ZM164.307 57.8559L164.301 57.8645C161.768 61.8458 160.426 68.1884 160.426 77.0556C160.426 85.9294 161.722 92.1669 164.152 95.9505C166.534 99.5648 170.133 101.4 175.122 101.4C178.793 101.4 181.675 100.484 183.857 98.7387C186.058 96.9781 187.792 94.2441 189 90.4333C190.208 86.6252 190.826 81.8863 190.826 76.1916C190.826 67.5154 189.483 61.3762 186.962 57.5943L186.956 57.5853C184.471 53.7701 180.772 51.8476 175.698 51.8476C170.54 51.8476 166.796 53.8549 164.307 57.8559ZM163.314 96.4956C160.722 92.4636 159.426 85.9836 159.426 77.0556C159.426 68.1276 160.77 61.5516 163.458 57.3276C166.146 53.0076 170.226 50.8476 175.698 50.8476C181.074 50.8476 185.106 52.9116 187.794 57.0396C190.482 61.0716 191.826 67.4556 191.826 76.1916C191.826 81.9516 191.202 86.7996 189.954 90.7356C188.706 94.6716 186.882 97.5996 184.482 99.5196C182.082 101.44 178.962 102.4 175.122 102.4C169.842 102.4 165.906 100.432 163.314 96.4956ZM223.762 118.242L223.773 118.232C225.561 116.546 227.75 115.018 230.331 113.641C229.994 113.442 229.668 113.231 229.353 113.008C226.8 111.199 225.475 108.743 225.475 105.712C225.475 104.736 225.638 103.727 225.949 102.688C226.263 101.641 226.823 100.379 227.603 98.9164C228.387 97.3489 229.456 95.4552 230.805 93.2396C231.677 91.8069 232.691 90.1309 233.847 88.2114C230.197 86.0691 227.304 83.2958 225.193 79.8859C222.583 75.6701 221.299 70.6807 221.299 64.9596C221.299 55.7802 224.422 48.519 230.733 43.3094C237.112 38.0271 245.862 35.4476 256.859 35.4476C263.663 35.4476 269.646 36.4619 274.782 38.5194L297.171 37.715V50.3694L288.889 52.0467C289.465 53.1025 289.953 54.2298 290.352 55.4274C291.16 57.8533 291.555 60.6034 291.555 63.6636C291.555 72.855 288.328 80.2062 281.834 85.6008L281.827 85.6066C275.359 90.8801 266.713 93.4636 255.995 93.4636C252.34 93.4636 248.783 93.1098 245.325 92.4011L243.979 101.4H268.379C278.179 101.4 285.774 103.288 291.011 107.216C296.296 111.179 298.899 116.972 298.899 124.432C298.899 133.043 295.111 139.652 287.621 144.149C280.283 148.708 269.406 150.92 255.131 150.92C243.078 150.92 233.948 149.335 227.871 146.047C224.821 144.397 222.483 142.319 220.91 139.792C219.335 137.262 218.563 134.338 218.563 131.056C218.563 126.002 220.292 121.712 223.752 118.252L223.762 118.242ZM287.099 143.296C294.299 138.976 297.899 132.688 297.899 124.432C297.899 117.232 295.403 111.76 290.411 108.016C285.419 104.272 278.075 102.4 268.379 102.4H242.818L244.493 91.1986C244.819 91.2725 245.145 91.3432 245.473 91.4106C248.88 92.1126 252.387 92.4636 255.995 92.4636C266.555 92.4636 274.955 89.9196 281.195 84.8316C287.435 79.6476 290.555 72.5916 290.555 63.6636C290.555 60.6876 290.171 58.0476 289.403 55.7436C288.987 54.4964 288.473 53.3335 287.86 52.2551C287.684 51.9453 287.5 51.6425 287.308 51.3466L296.171 49.5516V38.752L274.605 39.5264C273.856 39.221 273.087 38.9383 272.299 38.6784C272.235 38.6573 272.171 38.6363 272.106 38.6155C267.643 37.1702 262.561 36.4476 256.859 36.4476C246.011 36.4476 237.515 38.9916 231.371 44.0796C225.323 49.0716 222.299 56.0316 222.299 64.9596C222.299 70.5276 223.547 75.3276 226.043 79.3596C228.062 82.6215 230.836 85.2865 234.363 87.3546C234.648 87.5221 234.939 87.6857 235.235 87.8453C235.059 88.1364 234.887 88.4223 234.718 88.703C233.556 90.6337 232.536 92.3192 231.659 93.7596C230.315 95.9676 229.259 97.8396 228.491 99.3756C227.723 100.816 227.195 102.016 226.907 102.976C226.619 103.936 226.475 104.848 226.475 105.712C226.475 108.4 227.627 110.56 229.931 112.192C230.393 112.519 230.881 112.818 231.397 113.092C231.769 113.289 232.155 113.471 232.555 113.64C232.16 113.828 231.773 114.019 231.395 114.212C228.619 115.635 226.307 117.217 224.459 118.96C221.195 122.224 219.563 126.256 219.563 131.056C219.563 137.296 222.491 142 228.347 145.168C234.203 148.336 243.131 149.92 255.131 149.92C269.339 149.92 279.995 147.712 287.099 143.296ZM272.982 132.46L272.992 132.455C274.61 131.691 275.755 130.779 276.495 129.751C277.228 128.734 277.603 127.55 277.603 126.16C277.603 123.379 276.586 121.47 274.617 120.24C272.54 118.941 269.444 118.232 265.211 118.232H243.733C239.881 121.077 238.131 124.114 238.131 127.312C238.131 128.5 238.464 129.511 239.119 130.384C239.783 131.269 240.819 132.065 242.297 132.737C245.262 134.085 250.075 134.808 256.859 134.808C264.515 134.808 269.839 133.987 272.982 132.46ZM242.11 118.232C238.791 120.982 237.131 124.008 237.131 127.312C237.131 130.096 238.715 132.208 241.883 133.648C245.051 135.088 250.043 135.808 256.859 135.808C264.539 135.808 270.059 134.992 273.419 133.36C276.875 131.728 278.603 129.328 278.603 126.16C278.603 123.088 277.451 120.832 275.147 119.392C272.843 117.952 269.531 117.232 265.211 117.232H243.408C243.193 117.386 242.985 117.541 242.781 117.697C242.551 117.874 242.327 118.052 242.11 118.232ZM266.383 54.1542L266.376 54.1467C264.326 52.0964 261.169 50.9836 256.715 50.9836C252.172 50.9836 248.916 52.1409 246.766 54.2907C244.62 56.437 243.459 59.7377 243.459 64.3836C243.459 68.9336 244.573 72.2549 246.65 74.5053C248.712 76.7392 251.77 77.9276 255.995 77.9276C260.525 77.9276 263.835 76.7291 266.088 74.4765C268.334 72.2309 269.539 68.8309 269.539 64.0956C269.539 59.3286 268.414 56.1006 266.391 54.1616L266.383 54.1542ZM203.202 46.5276C196.866 39.8076 188.034 36.4476 176.706 36.4476C168.642 36.4476 161.778 38.1276 156.114 41.4876C150.45 44.8476 146.082 49.6476 143.01 55.8876C140.034 62.0316 138.546 69.4236 138.546 78.0636C138.546 90.4476 141.618 99.9996 147.762 106.72C154.002 113.44 162.786 116.8 174.114 116.8C182.178 116.8 189.09 115.12 194.85 111.76C200.61 108.4 205.026 103.648 208.098 97.5036C211.17 91.2636 212.706 83.8236 212.706 75.1836C212.706 62.7996 209.538 53.2476 203.202 46.5276ZM266.795 75.1836C264.299 77.6796 260.699 78.9276 255.995 78.9276C251.579 78.9276 248.219 77.6796 245.915 75.1836C243.611 72.6876 242.459 69.0876 242.459 64.3836C242.459 59.5836 243.659 55.9836 246.059 53.5836C248.459 51.1836 252.011 49.9836 256.715 49.9836C261.323 49.9836 264.779 51.1356 267.083 53.4396C269.387 55.6476 270.539 59.1996 270.539 64.0956C270.539 68.9916 269.291 72.6876 266.795 75.1836Z" stroke="#FAB169" stroke-width="2" mask="url(#path-1-outside-1_784_3087)"/>
</svg>
