<svg width="384" height="119" viewBox="0 0 384 119" fill="none" xmlns="http://www.w3.org/2000/svg">
<mask id="path-1-outside-1_688_3235" maskUnits="userSpaceOnUse" x="0" y="0" width="384" height="119" fill="black">
<rect fill="white" width="384" height="119"/>
<path d="M32.5374 118C26.7905 118 21.5343 115.857 16.7687 111.571C12.003 107.179 8.18351 100.696 5.31011 92.125C2.4367 83.4464 1 72.7857 1 60.1429C1 47.7143 2.40166 37.1071 5.20498 28.3214C8.0083 19.5357 11.968 12.7857 17.0841 8.07142C22.2001 3.35714 28.1922 1 35.0603 1C38.7047 1 42.4541 1.69643 46.3087 3.08929C50.1632 4.48214 54.2981 6.57142 58.7134 9.35714L57.7672 38.2857H48.8317L46.3087 19.4821L48.8317 23.1786C46.3788 21.6786 44.031 20.5536 41.7883 19.8036C39.5457 19.0536 37.4782 18.6786 35.586 18.6786C31.5912 18.6786 28.2273 20.2321 25.494 23.3393C22.7608 26.3393 20.6933 30.7321 19.2917 36.5179C17.89 42.3036 17.1892 49.2143 17.1892 57.25C17.1892 66.6786 17.9951 74.5536 19.607 80.875C21.289 87.0893 23.5667 91.75 26.4401 94.8571C29.3836 97.8571 32.6775 99.3571 36.3218 99.3571C39.0551 99.3571 41.9285 98.5 44.9421 96.7857C48.0257 94.9643 51.1094 92.2321 54.193 88.5893L59.7646 101.929C55.4195 107.286 50.8991 111.304 46.2035 113.982C41.5781 116.661 37.0227 118 32.5374 118Z"/>
<path d="M91.9697 28.3214C100.239 28.3214 106.687 32.0714 111.313 39.5714C115.938 47.0714 118.251 57.7321 118.251 71.5536C118.251 81.1964 117.129 89.5 114.887 96.4643C112.644 103.321 109.42 108.625 105.215 112.375C101.01 116.125 95.9644 118 90.0774 118C81.8076 118 75.395 114.25 70.8396 106.75C66.3543 99.25 64.1117 88.5893 64.1117 74.7679C64.1117 65.125 65.198 56.875 67.3705 50.0179C69.6132 43.0536 72.802 37.6964 76.9369 33.9464C81.0718 30.1964 86.0827 28.3214 91.9697 28.3214ZM91.2338 44.3929C87.2391 44.3929 84.2605 46.8036 82.2982 51.625C80.3359 56.3393 79.3547 63.6786 79.3547 73.6429C79.3547 83.6071 80.3008 90.8393 82.1931 95.3393C84.0853 99.7321 86.9587 101.929 90.8133 101.929C93.6166 101.929 95.8943 100.857 97.6464 98.7143C99.3985 96.5714 100.73 93.3036 101.641 88.9107C102.552 84.5179 103.008 79.1071 103.008 72.6786C103.008 62.9286 102.027 55.8036 100.064 51.3036C98.1019 46.6964 95.1584 44.3929 91.2338 44.3929Z"/>
<path d="M124.574 116.071V104.5L133.404 100.643L131.617 103.857V42.625L133.404 46.3214L124.574 42.3036V30.7321L143.076 29.4464L144.968 44.875L143.076 43.75C146.44 38.5 150.014 34.6429 153.798 32.1786C157.583 29.6071 161.192 28.3214 164.626 28.3214C169.392 28.3214 173.352 30.625 176.505 35.2321C179.659 39.7321 181.201 46.5893 181.131 55.8036V103.857L179.764 100.643L188.174 104.5V116.071H160.106V104.5L168.095 100.964L166.413 104.339V60.625C166.413 55.375 165.643 51.5179 164.101 49.0536C162.629 46.5893 160.667 45.3571 158.214 45.3571C156.321 45.3571 154.254 46.1607 152.011 47.7679C149.769 49.375 147.561 51.7857 145.389 55L146.335 51.625V104.339L144.968 100.964L152.642 104.5V116.071H124.574Z"/>
<path d="M212.727 118C207.891 118 204.211 115.804 201.688 111.411C199.236 106.911 198.009 100.268 198.009 91.4821V42.3036L199.901 45.1964H189.809V33.1429L200.112 29.4464L198.009 33.3036V11.4464L212.832 7.42857V33.3036L211.255 30.25H227.234L227.023 45.1964H211.255L212.832 42.3036V88.4286C212.832 93.0357 213.322 96.3571 214.303 98.3929C215.285 100.429 216.756 101.446 218.719 101.446C219.84 101.446 221.066 101.179 222.398 100.643C223.8 100 225.306 99.1964 226.918 98.2322L229.652 110.607C223.765 115.536 218.123 118 212.727 118Z"/>
<path d="M280.297 104.661L278.3 100.161L287.34 104.5V115.911L268.944 117.357L266.946 101.929L267.997 102.411C265.194 107.661 262.145 111.571 258.852 114.143C255.558 116.714 252.159 118 248.654 118C244.169 118 240.455 115.804 237.511 111.411C234.568 107.018 233.096 100.696 233.096 92.4464C233.096 86.3393 233.937 81.5179 235.619 77.9821C237.371 74.3393 239.894 71.7143 243.188 70.1071C246.482 68.5 250.477 67.6964 255.172 67.6964H266.631L265.58 69.4643V58.8571C265.58 53.8214 264.774 50.2321 263.162 48.0893C261.62 45.9464 259.342 44.875 256.329 44.875C254.857 44.875 253.28 45.0893 251.598 45.5179C249.916 45.9464 248.094 46.5893 246.131 47.4464L247.603 45.0357L246.237 58.0536H237.091L236.25 34.5893C241.015 32.4464 245.361 30.8929 249.285 29.9286C253.28 28.8571 256.924 28.3214 260.218 28.3214C266.736 28.3214 271.712 30.4643 275.146 34.75C278.58 39.0357 280.297 45.6786 280.297 54.6786V104.661ZM247.919 90.1964C247.919 94.1607 248.514 97.1071 249.706 99.0357C250.967 100.857 252.544 101.768 254.436 101.768C256.188 101.768 258.116 100.964 260.218 99.3571C262.321 97.6429 264.318 95.3393 266.21 92.4464L265.58 96.3036V77.9821L266.631 79.5893H257.59C253.946 79.5893 251.423 80.4464 250.021 82.1607C248.619 83.875 247.919 86.5536 247.919 90.1964Z"/>
<path d="M317.253 118C312.417 118 308.037 116.286 304.113 112.857C300.258 109.321 297.209 104.286 294.967 97.75C292.724 91.2143 291.603 83.2857 291.603 73.9643C291.603 65.5 292.409 58.375 294.021 52.5893C295.633 46.8036 297.805 42.1429 300.538 38.6071C303.272 34.9643 306.32 32.3393 309.684 30.7321C313.048 29.125 316.517 28.3214 320.092 28.3214C323.455 28.3214 326.855 28.9643 330.289 30.25C333.723 31.5357 336.526 32.9821 338.699 34.5893L338.278 58.2143H328.817L327.24 45.0357L328.396 46.3214C327.345 45.6786 326.049 45.1964 324.507 44.875C323.035 44.5536 321.668 44.3929 320.407 44.3929C317.393 44.3929 314.87 45.5714 312.838 47.9286C310.876 50.1786 309.404 53.4464 308.423 57.7321C307.442 61.9107 306.951 66.8929 306.951 72.6786C306.951 78.8929 307.512 84.1429 308.633 88.4286C309.754 92.7143 311.331 95.9822 313.364 98.2322C315.466 100.375 317.884 101.446 320.617 101.446C322.79 101.446 325.173 100.75 327.766 99.3571C330.359 97.9643 333.057 95.875 335.86 93.0893L340.801 104.5C336.876 109.107 332.952 112.536 329.027 114.786C325.102 116.929 321.178 118 317.253 118Z"/>
<path d="M365.075 118C360.239 118 356.56 115.804 354.037 111.411C351.584 106.911 350.357 100.268 350.357 91.4821V42.3036L352.25 45.1964H342.158V33.1429L352.46 29.4464L350.357 33.3036V11.4464L365.18 7.42857V33.3036L363.603 30.25H379.582L379.372 45.1964H363.603L365.18 42.3036V88.4286C365.18 93.0357 365.671 96.3571 366.652 98.3929C367.633 100.429 369.105 101.446 371.067 101.446C372.188 101.446 373.415 101.179 374.746 100.643C376.148 100 377.655 99.1964 379.267 98.2322L382 110.607C376.113 115.536 370.471 118 365.075 118Z"/>
</mask>
<path d="M32.5374 118C26.7905 118 21.5343 115.857 16.7687 111.571C12.003 107.179 8.18351 100.696 5.31011 92.125C2.4367 83.4464 1 72.7857 1 60.1429C1 47.7143 2.40166 37.1071 5.20498 28.3214C8.0083 19.5357 11.968 12.7857 17.0841 8.07142C22.2001 3.35714 28.1922 1 35.0603 1C38.7047 1 42.4541 1.69643 46.3087 3.08929C50.1632 4.48214 54.2981 6.57142 58.7134 9.35714L57.7672 38.2857H48.8317L46.3087 19.4821L48.8317 23.1786C46.3788 21.6786 44.031 20.5536 41.7883 19.8036C39.5457 19.0536 37.4782 18.6786 35.586 18.6786C31.5912 18.6786 28.2273 20.2321 25.494 23.3393C22.7608 26.3393 20.6933 30.7321 19.2917 36.5179C17.89 42.3036 17.1892 49.2143 17.1892 57.25C17.1892 66.6786 17.9951 74.5536 19.607 80.875C21.289 87.0893 23.5667 91.75 26.4401 94.8571C29.3836 97.8571 32.6775 99.3571 36.3218 99.3571C39.0551 99.3571 41.9285 98.5 44.9421 96.7857C48.0257 94.9643 51.1094 92.2321 54.193 88.5893L59.7646 101.929C55.4195 107.286 50.8991 111.304 46.2035 113.982C41.5781 116.661 37.0227 118 32.5374 118Z" stroke="#1BA098" stroke-width="2" mask="url(#path-1-outside-1_688_3235)"/>
<path d="M91.9697 28.3214C100.239 28.3214 106.687 32.0714 111.313 39.5714C115.938 47.0714 118.251 57.7321 118.251 71.5536C118.251 81.1964 117.129 89.5 114.887 96.4643C112.644 103.321 109.42 108.625 105.215 112.375C101.01 116.125 95.9644 118 90.0774 118C81.8076 118 75.395 114.25 70.8396 106.75C66.3543 99.25 64.1117 88.5893 64.1117 74.7679C64.1117 65.125 65.198 56.875 67.3705 50.0179C69.6132 43.0536 72.802 37.6964 76.9369 33.9464C81.0718 30.1964 86.0827 28.3214 91.9697 28.3214ZM91.2338 44.3929C87.2391 44.3929 84.2605 46.8036 82.2982 51.625C80.3359 56.3393 79.3547 63.6786 79.3547 73.6429C79.3547 83.6071 80.3008 90.8393 82.1931 95.3393C84.0853 99.7321 86.9587 101.929 90.8133 101.929C93.6166 101.929 95.8943 100.857 97.6464 98.7143C99.3985 96.5714 100.73 93.3036 101.641 88.9107C102.552 84.5179 103.008 79.1071 103.008 72.6786C103.008 62.9286 102.027 55.8036 100.064 51.3036C98.1019 46.6964 95.1584 44.3929 91.2338 44.3929Z" stroke="#1BA098" stroke-width="2" mask="url(#path-1-outside-1_688_3235)"/>
<path d="M124.574 116.071V104.5L133.404 100.643L131.617 103.857V42.625L133.404 46.3214L124.574 42.3036V30.7321L143.076 29.4464L144.968 44.875L143.076 43.75C146.44 38.5 150.014 34.6429 153.798 32.1786C157.583 29.6071 161.192 28.3214 164.626 28.3214C169.392 28.3214 173.352 30.625 176.505 35.2321C179.659 39.7321 181.201 46.5893 181.131 55.8036V103.857L179.764 100.643L188.174 104.5V116.071H160.106V104.5L168.095 100.964L166.413 104.339V60.625C166.413 55.375 165.643 51.5179 164.101 49.0536C162.629 46.5893 160.667 45.3571 158.214 45.3571C156.321 45.3571 154.254 46.1607 152.011 47.7679C149.769 49.375 147.561 51.7857 145.389 55L146.335 51.625V104.339L144.968 100.964L152.642 104.5V116.071H124.574Z" stroke="#1BA098" stroke-width="2" mask="url(#path-1-outside-1_688_3235)"/>
<path d="M212.727 118C207.891 118 204.211 115.804 201.688 111.411C199.236 106.911 198.009 100.268 198.009 91.4821V42.3036L199.901 45.1964H189.809V33.1429L200.112 29.4464L198.009 33.3036V11.4464L212.832 7.42857V33.3036L211.255 30.25H227.234L227.023 45.1964H211.255L212.832 42.3036V88.4286C212.832 93.0357 213.322 96.3571 214.303 98.3929C215.285 100.429 216.756 101.446 218.719 101.446C219.84 101.446 221.066 101.179 222.398 100.643C223.8 100 225.306 99.1964 226.918 98.2322L229.652 110.607C223.765 115.536 218.123 118 212.727 118Z" stroke="#1BA098" stroke-width="2" mask="url(#path-1-outside-1_688_3235)"/>
<path d="M280.297 104.661L278.3 100.161L287.34 104.5V115.911L268.944 117.357L266.946 101.929L267.997 102.411C265.194 107.661 262.145 111.571 258.852 114.143C255.558 116.714 252.159 118 248.654 118C244.169 118 240.455 115.804 237.511 111.411C234.568 107.018 233.096 100.696 233.096 92.4464C233.096 86.3393 233.937 81.5179 235.619 77.9821C237.371 74.3393 239.894 71.7143 243.188 70.1071C246.482 68.5 250.477 67.6964 255.172 67.6964H266.631L265.58 69.4643V58.8571C265.58 53.8214 264.774 50.2321 263.162 48.0893C261.62 45.9464 259.342 44.875 256.329 44.875C254.857 44.875 253.28 45.0893 251.598 45.5179C249.916 45.9464 248.094 46.5893 246.131 47.4464L247.603 45.0357L246.237 58.0536H237.091L236.25 34.5893C241.015 32.4464 245.361 30.8929 249.285 29.9286C253.28 28.8571 256.924 28.3214 260.218 28.3214C266.736 28.3214 271.712 30.4643 275.146 34.75C278.58 39.0357 280.297 45.6786 280.297 54.6786V104.661ZM247.919 90.1964C247.919 94.1607 248.514 97.1071 249.706 99.0357C250.967 100.857 252.544 101.768 254.436 101.768C256.188 101.768 258.116 100.964 260.218 99.3571C262.321 97.6429 264.318 95.3393 266.21 92.4464L265.58 96.3036V77.9821L266.631 79.5893H257.59C253.946 79.5893 251.423 80.4464 250.021 82.1607C248.619 83.875 247.919 86.5536 247.919 90.1964Z" stroke="#1BA098" stroke-width="2" mask="url(#path-1-outside-1_688_3235)"/>
<path d="M317.253 118C312.417 118 308.037 116.286 304.113 112.857C300.258 109.321 297.209 104.286 294.967 97.75C292.724 91.2143 291.603 83.2857 291.603 73.9643C291.603 65.5 292.409 58.375 294.021 52.5893C295.633 46.8036 297.805 42.1429 300.538 38.6071C303.272 34.9643 306.32 32.3393 309.684 30.7321C313.048 29.125 316.517 28.3214 320.092 28.3214C323.455 28.3214 326.855 28.9643 330.289 30.25C333.723 31.5357 336.526 32.9821 338.699 34.5893L338.278 58.2143H328.817L327.24 45.0357L328.396 46.3214C327.345 45.6786 326.049 45.1964 324.507 44.875C323.035 44.5536 321.668 44.3929 320.407 44.3929C317.393 44.3929 314.87 45.5714 312.838 47.9286C310.876 50.1786 309.404 53.4464 308.423 57.7321C307.442 61.9107 306.951 66.8929 306.951 72.6786C306.951 78.8929 307.512 84.1429 308.633 88.4286C309.754 92.7143 311.331 95.9822 313.364 98.2322C315.466 100.375 317.884 101.446 320.617 101.446C322.79 101.446 325.173 100.75 327.766 99.3571C330.359 97.9643 333.057 95.875 335.86 93.0893L340.801 104.5C336.876 109.107 332.952 112.536 329.027 114.786C325.102 116.929 321.178 118 317.253 118Z" stroke="#1BA098" stroke-width="2" mask="url(#path-1-outside-1_688_3235)"/>
<path d="M365.075 118C360.239 118 356.56 115.804 354.037 111.411C351.584 106.911 350.357 100.268 350.357 91.4821V42.3036L352.25 45.1964H342.158V33.1429L352.46 29.4464L350.357 33.3036V11.4464L365.18 7.42857V33.3036L363.603 30.25H379.582L379.372 45.1964H363.603L365.18 42.3036V88.4286C365.18 93.0357 365.671 96.3571 366.652 98.3929C367.633 100.429 369.105 101.446 371.067 101.446C372.188 101.446 373.415 101.179 374.746 100.643C376.148 100 377.655 99.1964 379.267 98.2322L382 110.607C376.113 115.536 370.471 118 365.075 118Z" stroke="#1BA098" stroke-width="2" mask="url(#path-1-outside-1_688_3235)"/>
</svg>
