<svg width="240" height="168" viewBox="0 0 240 168" fill="none" xmlns="http://www.w3.org/2000/svg">
<path d="M221.738 55.9641C287.292 26.3248 156.912 145.195 135.538 164.487C134.311 165.595 132.455 164.797 132.331 163.148C130.749 142.267 123.893 46.05 132.636 55.9641C142.437 67.0775 150.456 88.1928 221.738 55.9641Z" fill="#014361"/>
<path d="M21.3503 43.264C-64.5634 -36.2055 144.084 30.3782 144.084 43.264C144.084 56.1499 45.8954 84.0738 99.8982 75.4825C153.901 66.8912 202.998 163.541 144.084 133.473C85.1702 103.404 31.1718 146.358 21.3503 133.473C11.5287 120.587 107.264 122.734 21.3503 43.264Z" fill="#FB8C00"/>
<path d="M58.4176 24.1884C29.1657 -14.6089 146.173 73.7627 204.677 45.7425C263.181 17.7222 172.988 147.046 146.173 101.783C119.358 56.5198 58.4176 101.783 58.4176 101.783C58.4176 101.783 87.6695 62.9857 58.4176 24.1884Z" fill="#C4C4C4"/>
<g filter="url(#filter0_d_793_3081)">
<path d="M21.7656 53.8281H12.0625C11.6562 53.8281 11.3281 53.8125 11.0781 53.7812C10.8594 53.75 10.6562 53.6562 10.4688 53.5C10.3125 53.3125 10.2344 53.0625 10.2344 52.75C10.2344 51.4375 11.125 50.0469 12.9062 48.5781C14.6875 47.1094 16.4844 46.3281 18.2969 46.2344C20.3281 46.1406 22.9531 46.0938 26.1719 46.0938C27.4844 46.0938 28.6719 46.125 29.7344 46.1875C30.8281 46.25 32.125 46.4062 33.625 46.6562C35.1562 46.9062 36.5 47.25 37.6562 47.6875C38.8125 48.125 40 48.7656 41.2188 49.6094C42.4688 50.4531 43.5 51.4531 44.3125 52.6094C45.125 53.7344 45.7969 55.1719 46.3281 56.9219C46.8594 58.6406 47.125 60.5781 47.125 62.7344C47.125 67.3594 45.2344 71.1719 41.4531 74.1719C40.9219 74.5781 40.6562 74.9375 40.6562 75.25C40.6562 75.6562 40.8906 75.9375 41.3594 76.0938C45.5469 77.4688 48.6719 79.5156 50.7344 82.2344C52.7969 84.9531 53.8281 88.6406 53.8281 93.2969C53.8281 95.0156 53.5781 96.7344 53.0781 98.4531C52.6094 100.141 51.8281 101.812 50.7344 103.469C49.6719 105.094 48.3594 106.547 46.7969 107.828C45.2656 109.078 43.3438 110.094 41.0312 110.875C38.7188 111.625 36.1719 112 33.3906 112C32.2969 112 31.75 111.703 31.75 111.109C31.75 110.703 32 110.375 32.5 110.125C36.375 108.406 39.2344 106.203 41.0781 103.516C42.9219 100.828 43.8438 97.4844 43.8438 93.4844C43.8438 85.5156 39.9375 80.9062 32.125 79.6562C31.625 79.5625 31.375 79.2969 31.375 78.8594C31.375 78.4531 31.75 77.9844 32.5 77.4531C34.1562 76.2344 35.5 74.6562 36.5312 72.7188C37.5625 70.75 38.0781 68.5781 38.0781 66.2031C38.0781 64.0781 37.7656 62.25 37.1406 60.7188C36.5469 59.1562 35.7656 57.9531 34.7969 57.1094C33.8594 56.2344 32.625 55.5469 31.0938 55.0469C29.5938 54.5156 28.1406 54.1875 26.7344 54.0625C25.3281 53.9062 23.6719 53.8281 21.7656 53.8281ZM10.2344 109.984V59.4531C10.2344 58.3281 10.6094 57.5781 11.3594 57.2031C12.1406 56.8281 13.3281 56.6406 14.9219 56.6406C16.6719 56.6406 17.8906 56.8281 18.5781 57.2031C19.2969 57.5469 19.6562 58.2969 19.6562 59.4531V70.5156C19.6562 71.7969 20.2969 72.4375 21.5781 72.4375H29.8281C31.1719 72.4375 31.8438 72.8594 31.8438 73.7031C31.8438 74.0781 31.5 74.6875 30.8125 75.5312C30.125 76.375 29.2812 77.0781 28.2812 77.6406C27.1875 78.2656 24.9531 78.875 21.5781 79.4688C20.2969 79.7188 19.6562 80.5469 19.6562 81.9531V102.391C19.6562 103.672 20.2969 104.312 21.5781 104.312H31.6562C33 104.312 33.6719 104.703 33.6719 105.484C33.6719 106.141 32.9219 106.984 31.4219 108.016C29.9219 109.047 28.0156 109.969 25.7031 110.781C23.4219 111.594 21.3281 112 19.4219 112H12.1562C10.875 112 10.2344 111.328 10.2344 109.984ZM120.016 53.9219H81.625C80.2812 53.9219 79.6094 53.4375 79.6094 52.4688C79.6094 52.0312 79.9219 51.2344 80.5469 50.0781C81.1719 48.9219 81.9062 47.9688 82.75 47.2188C83.4688 46.5625 84.625 46.2344 86.2188 46.2344H124.609C125.953 46.2344 126.625 46.7188 126.625 47.6875C126.625 48.125 126.312 48.9219 125.688 50.0781C125.062 51.2344 124.328 52.1875 123.484 52.9375C122.766 53.5938 121.609 53.9219 120.016 53.9219ZM97.5625 110.453L97.5156 59.5469C97.5156 58.4219 97.8906 57.6875 98.6406 57.3438C99.4219 56.9688 100.609 56.7812 102.203 56.7812C103.953 56.7812 105.172 56.9688 105.859 57.3438C106.578 57.6875 106.938 58.4219 106.938 59.5469V105.484C106.938 106.828 106.625 107.875 106 108.625C105.188 109.594 104.062 110.484 102.625 111.297C101.219 112.078 100.078 112.469 99.2031 112.469C98.1094 112.469 97.5625 111.797 97.5625 110.453ZM173.266 74.8281C175.734 75.2969 177.938 75.875 179.875 76.5625C181.844 77.25 183.5 77.9844 184.844 78.7656C186.188 79.5156 187.344 80.3906 188.312 81.3906C189.281 82.3906 190.031 83.3594 190.562 84.2969C191.125 85.2344 191.562 86.3125 191.875 87.5312C192.188 88.75 192.391 89.875 192.484 90.9062C192.578 91.9062 192.625 93.0781 192.625 94.4219C192.625 96.9219 192.156 99.3125 191.219 101.594C190.281 103.875 189.109 105.766 187.703 107.266C186.328 108.734 184.891 109.906 183.391 110.781C181.891 111.656 180.531 112.094 179.312 112.094C178.656 112.094 178.328 111.781 178.328 111.156C178.328 110.75 178.578 110.297 179.078 109.797C180.672 108.266 181.844 106.406 182.594 104.219C183.344 102.031 183.719 100.047 183.719 98.2656C183.719 97.2031 183.703 96.375 183.672 95.7812C183.641 95.1875 183.531 94.375 183.344 93.3438C183.188 92.3125 182.938 91.4844 182.594 90.8594C182.281 90.2031 181.797 89.4688 181.141 88.6562C180.484 87.8125 179.688 87.125 178.75 86.5938C177.812 86.0312 176.609 85.5156 175.141 85.0469C173.703 84.5469 172.047 84.1562 170.172 83.875C167.797 83.5312 165.656 83.0781 163.75 82.5156C161.875 81.9219 160.312 81.2969 159.062 80.6406C157.844 79.9844 156.781 79.2188 155.875 78.3438C155 77.4688 154.328 76.6562 153.859 75.9062C153.391 75.125 153.031 74.25 152.781 73.2812C152.531 72.3125 152.375 71.5156 152.312 70.8906C152.25 70.2344 152.219 69.5 152.219 68.6875C152.219 67.75 152.359 66.8594 152.641 66.0156C153.078 64.6719 154.078 63.3906 155.641 62.1719C157.203 60.9531 158.562 60.3438 159.719 60.3438C160.281 60.3438 160.703 60.4688 160.984 60.7188C161.297 60.9375 161.453 61.4219 161.453 62.1719C161.453 64.5469 161.594 66.4219 161.875 67.7969C162.188 69.1719 162.828 70.3281 163.797 71.2656C164.766 72.2031 165.938 72.9062 167.312 73.375C168.688 73.8438 170.672 74.3281 173.266 74.8281ZM165.625 113.453C163.25 113.453 161.156 113.141 159.344 112.516C157.562 111.922 155.609 110.656 153.484 108.719C152.453 107.781 151.938 106.797 151.938 105.766C151.938 104.922 152.281 104.156 152.969 103.469C155.031 101.406 156.891 100.375 158.547 100.375C159.609 100.375 160.797 100.922 162.109 102.016C163.922 103.578 165.422 104.594 166.609 105.062C167.828 105.531 169.25 105.766 170.875 105.766C172.25 105.766 173.516 105.5 174.672 104.969C175.859 104.438 176.562 104.172 176.781 104.172C177.562 104.172 177.953 104.672 177.953 105.672C177.953 106.172 177.75 106.812 177.344 107.594C176.938 108.375 176.297 109.234 175.422 110.172C174.578 111.078 173.281 111.844 171.531 112.469C169.812 113.125 167.844 113.453 165.625 113.453ZM188.969 50.3594C188.969 51.5781 188.156 52.7969 186.531 54.0156C184.938 55.2344 183.547 55.8438 182.359 55.8438C181.609 55.8438 180.594 55.5625 179.312 55C178.031 54.4375 176.578 53.875 174.953 53.3125C173.359 52.75 171.797 52.4688 170.266 52.4688C167.641 52.4688 165.188 52.9688 162.906 53.9688C160.656 54.9375 158.25 56.4844 155.688 58.6094C154 60.0156 152.938 60.7188 152.5 60.7188C151.812 60.7188 151.469 60.3438 151.469 59.5938C151.469 59.0938 151.766 58.3281 152.359 57.2969C152.953 56.2656 153.516 55.4219 154.047 54.7656C159.547 48.1094 166.844 44.7812 175.938 44.7812C177.656 44.7812 179.5 45 181.469 45.4375C183.438 45.8438 185.172 46.5 186.672 47.4062C188.203 48.2812 188.969 49.2656 188.969 50.3594Z" fill="white"/>
</g>
<defs>
<filter id="filter0_d_793_3081" x="7.23438" y="43.7812" width="185.391" height="70.6719" filterUnits="userSpaceOnUse" color-interpolation-filters="sRGB">
<feFlood flood-opacity="0" result="BackgroundImageFix"/>
<feColorMatrix in="SourceAlpha" type="matrix" values="0 0 0 0 0 0 0 0 0 0 0 0 0 0 0 0 0 0 127 0" result="hardAlpha"/>
<feOffset dx="-2"/>
<feGaussianBlur stdDeviation="0.5"/>
<feComposite in2="hardAlpha" operator="out"/>
<feColorMatrix type="matrix" values="0 0 0 0 0 0 0 0 0 0 0 0 0 0 0 0 0 0 0.45 0"/>
<feBlend mode="normal" in2="BackgroundImageFix" result="effect1_dropShadow_793_3081"/>
<feBlend mode="normal" in="SourceGraphic" in2="effect1_dropShadow_793_3081" result="shape"/>
</filter>
</defs>
</svg>
