<svg width="383" height="119" viewBox="0 0 383 119" fill="none" xmlns="http://www.w3.org/2000/svg">
<mask id="path-1-outside-1_688_3234" maskUnits="userSpaceOnUse" x="0" y="0" width="383" height="119" fill="black">
<rect fill="white" width="383" height="119"/>
<path d="M27.8671 61.7896H19.9177L22.8358 59.271V82.2818L20.8233 79.0763L32.3953 82.0528V90.2955H1V82.0528L10.6601 78.8474L8.44631 82.2818V17.9432L10.962 21.4922L1 18.5157V10.273L23.1377 9.70058H32.2946C37.8626 9.70058 42.4243 10.8072 45.9797 13.0205C49.5352 15.1575 52.1515 18.0959 53.8286 21.8356C55.5727 25.5753 56.4448 29.8112 56.4448 34.5431C56.4448 39.6566 55.405 44.3121 53.3254 48.5098C51.3129 52.6311 48.1935 55.8748 43.9672 58.2407C39.808 60.6067 34.4413 61.7896 27.8671 61.7896ZM29.9802 21.3777H20.622L22.8358 18.8591V52.5166L19.9177 49.998H27.9677C32.4623 49.998 35.8836 48.6243 38.2316 45.8767C40.5795 43.1292 41.7535 39.4658 41.7535 34.8865C41.7535 30.6888 40.7472 27.407 38.7347 25.0411C36.7893 22.5988 33.8711 21.3777 29.9802 21.3777Z"/>
<path d="M61.2214 90.2955V82.0528L69.3721 79.4198L67.9633 81.8239V37.863L69.5734 40.6106L61.2214 37.7485V29.5059L78.9316 28.59L80.7428 39.4657L78.9316 39.0078C81.9503 35.4207 84.9356 32.6732 87.8872 30.7652C90.8389 28.7808 93.9919 27.7886 97.3461 27.7886C99.4928 27.7886 101.774 28.1703 104.189 28.9335L103.283 50.1125H95.1323L93.6229 37.7485L94.9311 40.8395C94.5286 40.6869 94.0925 40.5724 93.6229 40.4961C93.2204 40.4198 92.8179 40.3816 92.4154 40.3816C90.3358 40.3816 88.2562 41.1066 86.1766 42.5567C84.1641 44.0068 82.4199 45.8767 80.9441 48.1663L82.051 43.816V81.8239L80.4409 79.4198L90.4029 82.0528V90.2955H61.2214Z"/>
<path d="M133.685 27.7886C141.6 27.7886 147.772 30.4599 152.2 35.8023C156.627 41.1448 158.841 48.7387 158.841 58.5841C158.841 65.453 157.768 71.3679 155.621 76.3288C153.474 81.2133 150.388 84.9912 146.363 87.6624C142.338 90.3337 137.508 91.6693 131.873 91.6693C123.957 91.6693 117.819 88.998 113.459 83.6556C109.165 78.3131 107.019 70.7192 107.019 60.8738C107.019 54.0049 108.059 48.1282 110.138 43.2436C112.285 38.2828 115.337 34.4667 119.295 31.7955C123.253 29.1243 128.05 27.7886 133.685 27.7886ZM132.98 39.2368C129.156 39.2368 126.305 40.954 124.427 44.3885C122.549 47.7466 121.609 52.9746 121.609 60.0724C121.609 67.1703 122.515 72.3219 124.326 75.5274C126.138 78.6565 128.888 80.2211 132.578 80.2211C135.261 80.2211 137.441 79.4579 139.118 77.9315C140.795 76.4051 142.07 74.0773 142.942 70.9481C143.814 67.819 144.25 63.9648 144.25 59.3855C144.25 52.4403 143.311 47.365 141.433 44.1595C139.554 40.8777 136.737 39.2368 132.98 39.2368Z"/>
<path d="M162.483 118C161.41 118 160.337 117.924 159.263 117.771C158.19 117.618 157.049 117.428 155.842 117.199L156.848 105.865C157.586 105.941 158.29 106.018 158.961 106.094C159.632 106.17 160.269 106.208 160.873 106.208C164.16 106.208 166.508 105.369 167.917 103.69C169.393 102.011 170.131 99.1106 170.131 94.9892V38.5499L171.439 40.3816L163.389 37.7485V29.5059L184.218 28.7045V90.181C184.218 95.2182 183.682 99.4922 182.608 103.003C181.602 106.514 180.16 109.376 178.281 111.589C176.403 113.802 174.122 115.405 171.439 116.397C168.756 117.466 165.77 118 162.483 118ZM176.269 19.7749C173.787 19.7749 171.774 18.9736 170.231 17.3708C168.756 15.7681 168.018 13.4785 168.018 10.502C168.018 7.29648 168.789 4.93053 170.332 3.40411C171.942 1.80137 173.955 1 176.37 1C178.717 1 180.663 1.80137 182.206 3.40411C183.749 4.93053 184.52 7.25832 184.52 10.3875C184.52 13.5166 183.715 15.8826 182.105 17.4853C180.562 19.0117 178.617 19.7749 176.269 19.7749Z"/>
<path d="M218.735 91.6693C213.837 91.6693 209.544 90.5245 205.855 88.2348C202.165 85.8689 199.28 82.3963 197.201 77.817C195.188 73.1614 194.182 67.5137 194.182 60.8738C194.182 54.0049 195.255 48.1282 197.402 43.2436C199.616 38.2828 202.702 34.4667 206.66 31.7955C210.617 29.1243 215.28 27.7886 220.646 27.7886C225.879 27.7886 230.139 28.9716 233.426 31.3376C236.713 33.7035 239.128 36.9472 240.671 41.0685C242.214 45.1135 242.985 49.6928 242.985 54.8063C242.985 56.1037 242.918 57.4012 242.784 58.6986C242.717 59.9961 242.583 61.3699 242.382 62.82H205.553V53.318H230.307L228.495 54.8063C228.562 51.7534 228.294 49.0822 227.69 46.7926C227.154 44.4266 226.214 42.5949 224.873 41.2974C223.598 40 221.82 39.3513 219.54 39.3513C216.923 39.3513 214.81 40.229 213.2 41.9843C211.59 43.6634 210.416 45.953 209.678 48.8532C209.007 51.7534 208.672 54.9971 208.672 58.5841C208.672 62.6292 209.108 66.2544 209.98 69.4599C210.852 72.6654 212.261 75.184 214.206 77.0157C216.219 78.8474 218.835 79.7632 222.055 79.7632C224.336 79.7632 226.785 79.3053 229.401 78.3894C232.084 77.3973 234.868 75.9472 237.753 74.0391L242.482 82.6252C238.591 85.6781 234.6 87.9677 230.508 89.4941C226.483 90.9442 222.558 91.6693 218.735 91.6693Z"/>
<path d="M273.76 91.6693C269.131 91.6693 264.938 90.4481 261.181 88.0059C257.492 85.4873 254.574 81.9002 252.427 77.2446C250.28 72.589 249.207 66.9413 249.207 60.3014C249.207 54.272 249.978 49.1967 251.521 45.0753C253.064 40.954 255.144 37.634 257.76 35.1155C260.376 32.5205 263.295 30.6507 266.515 29.5059C269.735 28.3611 273.055 27.7886 276.477 27.7886C279.697 27.7886 282.95 28.2466 286.237 29.1624C289.524 30.0783 292.208 31.1086 294.287 32.2534L293.885 49.0822H284.828L283.319 39.6947L284.426 40.6106C283.42 40.1526 282.179 39.8092 280.703 39.5802C279.294 39.3513 277.986 39.2368 276.778 39.2368C273.894 39.2368 271.479 40.0763 269.533 41.7554C267.655 43.3581 266.246 45.6859 265.307 48.7387C264.368 51.7153 263.898 55.2642 263.898 59.3855C263.898 63.8121 264.435 67.5519 265.508 70.6047C266.582 73.6575 268.091 75.9853 270.036 77.5881C272.049 79.1145 274.363 79.8777 276.98 79.8777C279.059 79.8777 281.34 79.3816 283.822 78.3894C286.304 77.3973 288.887 75.909 291.57 73.9247L296.3 82.0528C292.543 85.3346 288.786 87.7769 285.03 89.3796C281.273 90.9061 277.516 91.6693 273.76 91.6693Z"/>
<path d="M319.535 91.6693C314.906 91.6693 311.384 90.1047 308.969 86.9755C306.621 83.7701 305.447 79.0382 305.447 72.7798V37.7485L307.259 39.8092H297.599V31.2231L307.46 28.59L305.447 31.3376V15.7681L319.636 12.9061V31.3376L318.126 29.1624H333.421L333.22 39.8092H318.126L319.636 37.7485V70.6047C319.636 73.8865 320.105 76.2524 321.044 77.7025C321.984 79.1526 323.392 79.8777 325.271 79.8777C326.344 79.8777 327.518 79.6869 328.793 79.3053C330.134 78.8474 331.577 78.2749 333.119 77.5881L335.736 86.4031C330.101 89.9139 324.7 91.6693 319.535 91.6693Z"/>
<path d="M354.127 44.6174C354.127 46.3728 354.798 47.7847 356.139 48.8532C357.481 49.9217 359.191 50.8376 361.271 51.6008C363.418 52.364 365.665 53.1654 368.013 54.0049C370.428 54.8444 372.675 55.9511 374.755 57.3248C376.902 58.6223 378.646 60.3777 379.987 62.591C381.329 64.8043 382 67.6663 382 71.1771C382 75.68 380.927 79.4579 378.78 82.5108C376.633 85.5636 373.715 87.8532 370.026 89.3796C366.336 90.9061 362.177 91.6693 357.548 91.6693C354.865 91.6693 352.014 91.4021 348.995 90.8679C346.043 90.3337 342.991 89.6086 339.838 88.6928L340.442 71.4061H349.297L350.403 81.4804L349.196 79.5342C350.538 79.9922 352.013 80.3738 353.624 80.6791C355.234 80.908 356.642 81.0225 357.85 81.0225C359.594 81.0225 361.204 80.7554 362.68 80.2211C364.223 79.6869 365.464 78.9237 366.403 77.9315C367.409 76.863 367.912 75.5274 367.912 73.9247C367.912 72.0929 367.242 70.6429 365.9 69.5744C364.558 68.5059 362.814 67.59 360.667 66.8268C358.588 66.0636 356.374 65.2622 354.026 64.4227C351.745 63.5832 349.531 62.4765 347.385 61.1027C345.305 59.729 343.594 57.8973 342.253 55.6076C340.911 53.318 340.24 50.3415 340.24 46.6781C340.24 42.2515 341.213 38.6644 343.158 35.9168C345.104 33.0929 347.687 31.0323 350.907 29.7348C354.194 28.4374 357.783 27.7886 361.674 27.7886C364.424 27.7886 367.342 28.0939 370.428 28.7045C373.514 29.2387 376.667 30.0401 379.887 31.1086L379.384 46.4491H370.428L368.818 37.4051L370.73 39.8092C367.577 38.817 364.793 38.3209 362.378 38.3209C359.896 38.3209 357.883 38.8933 356.34 40.0382C354.865 41.1067 354.127 42.6331 354.127 44.6174Z"/>
</mask>
<path d="M27.8671 61.7896H19.9177L22.8358 59.271V82.2818L20.8233 79.0763L32.3953 82.0528V90.2955H1V82.0528L10.6601 78.8474L8.44631 82.2818V17.9432L10.962 21.4922L1 18.5157V10.273L23.1377 9.70058H32.2946C37.8626 9.70058 42.4243 10.8072 45.9797 13.0205C49.5352 15.1575 52.1515 18.0959 53.8286 21.8356C55.5727 25.5753 56.4448 29.8112 56.4448 34.5431C56.4448 39.6566 55.405 44.3121 53.3254 48.5098C51.3129 52.6311 48.1935 55.8748 43.9672 58.2407C39.808 60.6067 34.4413 61.7896 27.8671 61.7896ZM29.9802 21.3777H20.622L22.8358 18.8591V52.5166L19.9177 49.998H27.9677C32.4623 49.998 35.8836 48.6243 38.2316 45.8767C40.5795 43.1292 41.7535 39.4658 41.7535 34.8865C41.7535 30.6888 40.7472 27.407 38.7347 25.0411C36.7893 22.5988 33.8711 21.3777 29.9802 21.3777Z" stroke="#1BA098" stroke-width="2" mask="url(#path-1-outside-1_688_3234)"/>
<path d="M61.2214 90.2955V82.0528L69.3721 79.4198L67.9633 81.8239V37.863L69.5734 40.6106L61.2214 37.7485V29.5059L78.9316 28.59L80.7428 39.4657L78.9316 39.0078C81.9503 35.4207 84.9356 32.6732 87.8872 30.7652C90.8389 28.7808 93.9919 27.7886 97.3461 27.7886C99.4928 27.7886 101.774 28.1703 104.189 28.9335L103.283 50.1125H95.1323L93.6229 37.7485L94.9311 40.8395C94.5286 40.6869 94.0925 40.5724 93.6229 40.4961C93.2204 40.4198 92.8179 40.3816 92.4154 40.3816C90.3358 40.3816 88.2562 41.1066 86.1766 42.5567C84.1641 44.0068 82.4199 45.8767 80.9441 48.1663L82.051 43.816V81.8239L80.4409 79.4198L90.4029 82.0528V90.2955H61.2214Z" stroke="#1BA098" stroke-width="2" mask="url(#path-1-outside-1_688_3234)"/>
<path d="M133.685 27.7886C141.6 27.7886 147.772 30.4599 152.2 35.8023C156.627 41.1448 158.841 48.7387 158.841 58.5841C158.841 65.453 157.768 71.3679 155.621 76.3288C153.474 81.2133 150.388 84.9912 146.363 87.6624C142.338 90.3337 137.508 91.6693 131.873 91.6693C123.957 91.6693 117.819 88.998 113.459 83.6556C109.165 78.3131 107.019 70.7192 107.019 60.8738C107.019 54.0049 108.059 48.1282 110.138 43.2436C112.285 38.2828 115.337 34.4667 119.295 31.7955C123.253 29.1243 128.05 27.7886 133.685 27.7886ZM132.98 39.2368C129.156 39.2368 126.305 40.954 124.427 44.3885C122.549 47.7466 121.609 52.9746 121.609 60.0724C121.609 67.1703 122.515 72.3219 124.326 75.5274C126.138 78.6565 128.888 80.2211 132.578 80.2211C135.261 80.2211 137.441 79.4579 139.118 77.9315C140.795 76.4051 142.07 74.0773 142.942 70.9481C143.814 67.819 144.25 63.9648 144.25 59.3855C144.25 52.4403 143.311 47.365 141.433 44.1595C139.554 40.8777 136.737 39.2368 132.98 39.2368Z" stroke="#1BA098" stroke-width="2" mask="url(#path-1-outside-1_688_3234)"/>
<path d="M162.483 118C161.41 118 160.337 117.924 159.263 117.771C158.19 117.618 157.049 117.428 155.842 117.199L156.848 105.865C157.586 105.941 158.29 106.018 158.961 106.094C159.632 106.17 160.269 106.208 160.873 106.208C164.16 106.208 166.508 105.369 167.917 103.69C169.393 102.011 170.131 99.1106 170.131 94.9892V38.5499L171.439 40.3816L163.389 37.7485V29.5059L184.218 28.7045V90.181C184.218 95.2182 183.682 99.4922 182.608 103.003C181.602 106.514 180.16 109.376 178.281 111.589C176.403 113.802 174.122 115.405 171.439 116.397C168.756 117.466 165.77 118 162.483 118ZM176.269 19.7749C173.787 19.7749 171.774 18.9736 170.231 17.3708C168.756 15.7681 168.018 13.4785 168.018 10.502C168.018 7.29648 168.789 4.93053 170.332 3.40411C171.942 1.80137 173.955 1 176.37 1C178.717 1 180.663 1.80137 182.206 3.40411C183.749 4.93053 184.52 7.25832 184.52 10.3875C184.52 13.5166 183.715 15.8826 182.105 17.4853C180.562 19.0117 178.617 19.7749 176.269 19.7749Z" stroke="#1BA098" stroke-width="2" mask="url(#path-1-outside-1_688_3234)"/>
<path d="M218.735 91.6693C213.837 91.6693 209.544 90.5245 205.855 88.2348C202.165 85.8689 199.28 82.3963 197.201 77.817C195.188 73.1614 194.182 67.5137 194.182 60.8738C194.182 54.0049 195.255 48.1282 197.402 43.2436C199.616 38.2828 202.702 34.4667 206.66 31.7955C210.617 29.1243 215.28 27.7886 220.646 27.7886C225.879 27.7886 230.139 28.9716 233.426 31.3376C236.713 33.7035 239.128 36.9472 240.671 41.0685C242.214 45.1135 242.985 49.6928 242.985 54.8063C242.985 56.1037 242.918 57.4012 242.784 58.6986C242.717 59.9961 242.583 61.3699 242.382 62.82H205.553V53.318H230.307L228.495 54.8063C228.562 51.7534 228.294 49.0822 227.69 46.7926C227.154 44.4266 226.214 42.5949 224.873 41.2974C223.598 40 221.82 39.3513 219.54 39.3513C216.923 39.3513 214.81 40.229 213.2 41.9843C211.59 43.6634 210.416 45.953 209.678 48.8532C209.007 51.7534 208.672 54.9971 208.672 58.5841C208.672 62.6292 209.108 66.2544 209.98 69.4599C210.852 72.6654 212.261 75.184 214.206 77.0157C216.219 78.8474 218.835 79.7632 222.055 79.7632C224.336 79.7632 226.785 79.3053 229.401 78.3894C232.084 77.3973 234.868 75.9472 237.753 74.0391L242.482 82.6252C238.591 85.6781 234.6 87.9677 230.508 89.4941C226.483 90.9442 222.558 91.6693 218.735 91.6693Z" stroke="#1BA098" stroke-width="2" mask="url(#path-1-outside-1_688_3234)"/>
<path d="M273.76 91.6693C269.131 91.6693 264.938 90.4481 261.181 88.0059C257.492 85.4873 254.574 81.9002 252.427 77.2446C250.28 72.589 249.207 66.9413 249.207 60.3014C249.207 54.272 249.978 49.1967 251.521 45.0753C253.064 40.954 255.144 37.634 257.76 35.1155C260.376 32.5205 263.295 30.6507 266.515 29.5059C269.735 28.3611 273.055 27.7886 276.477 27.7886C279.697 27.7886 282.95 28.2466 286.237 29.1624C289.524 30.0783 292.208 31.1086 294.287 32.2534L293.885 49.0822H284.828L283.319 39.6947L284.426 40.6106C283.42 40.1526 282.179 39.8092 280.703 39.5802C279.294 39.3513 277.986 39.2368 276.778 39.2368C273.894 39.2368 271.479 40.0763 269.533 41.7554C267.655 43.3581 266.246 45.6859 265.307 48.7387C264.368 51.7153 263.898 55.2642 263.898 59.3855C263.898 63.8121 264.435 67.5519 265.508 70.6047C266.582 73.6575 268.091 75.9853 270.036 77.5881C272.049 79.1145 274.363 79.8777 276.98 79.8777C279.059 79.8777 281.34 79.3816 283.822 78.3894C286.304 77.3973 288.887 75.909 291.57 73.9247L296.3 82.0528C292.543 85.3346 288.786 87.7769 285.03 89.3796C281.273 90.9061 277.516 91.6693 273.76 91.6693Z" stroke="#1BA098" stroke-width="2" mask="url(#path-1-outside-1_688_3234)"/>
<path d="M319.535 91.6693C314.906 91.6693 311.384 90.1047 308.969 86.9755C306.621 83.7701 305.447 79.0382 305.447 72.7798V37.7485L307.259 39.8092H297.599V31.2231L307.46 28.59L305.447 31.3376V15.7681L319.636 12.9061V31.3376L318.126 29.1624H333.421L333.22 39.8092H318.126L319.636 37.7485V70.6047C319.636 73.8865 320.105 76.2524 321.044 77.7025C321.984 79.1526 323.392 79.8777 325.271 79.8777C326.344 79.8777 327.518 79.6869 328.793 79.3053C330.134 78.8474 331.577 78.2749 333.119 77.5881L335.736 86.4031C330.101 89.9139 324.7 91.6693 319.535 91.6693Z" stroke="#1BA098" stroke-width="2" mask="url(#path-1-outside-1_688_3234)"/>
<path d="M354.127 44.6174C354.127 46.3728 354.798 47.7847 356.139 48.8532C357.481 49.9217 359.191 50.8376 361.271 51.6008C363.418 52.364 365.665 53.1654 368.013 54.0049C370.428 54.8444 372.675 55.9511 374.755 57.3248C376.902 58.6223 378.646 60.3777 379.987 62.591C381.329 64.8043 382 67.6663 382 71.1771C382 75.68 380.927 79.4579 378.78 82.5108C376.633 85.5636 373.715 87.8532 370.026 89.3796C366.336 90.9061 362.177 91.6693 357.548 91.6693C354.865 91.6693 352.014 91.4021 348.995 90.8679C346.043 90.3337 342.991 89.6086 339.838 88.6928L340.442 71.4061H349.297L350.403 81.4804L349.196 79.5342C350.538 79.9922 352.013 80.3738 353.624 80.6791C355.234 80.908 356.642 81.0225 357.85 81.0225C359.594 81.0225 361.204 80.7554 362.68 80.2211C364.223 79.6869 365.464 78.9237 366.403 77.9315C367.409 76.863 367.912 75.5274 367.912 73.9247C367.912 72.0929 367.242 70.6429 365.9 69.5744C364.558 68.5059 362.814 67.59 360.667 66.8268C358.588 66.0636 356.374 65.2622 354.026 64.4227C351.745 63.5832 349.531 62.4765 347.385 61.1027C345.305 59.729 343.594 57.8973 342.253 55.6076C340.911 53.318 340.24 50.3415 340.24 46.6781C340.24 42.2515 341.213 38.6644 343.158 35.9168C345.104 33.0929 347.687 31.0323 350.907 29.7348C354.194 28.4374 357.783 27.7886 361.674 27.7886C364.424 27.7886 367.342 28.0939 370.428 28.7045C373.514 29.2387 376.667 30.0401 379.887 31.1086L379.384 46.4491H370.428L368.818 37.4051L370.73 39.8092C367.577 38.817 364.793 38.3209 362.378 38.3209C359.896 38.3209 357.883 38.8933 356.34 40.0382C354.865 41.1067 354.127 42.6331 354.127 44.6174Z" stroke="#1BA098" stroke-width="2" mask="url(#path-1-outside-1_688_3234)"/>
</svg>
